<?xml version="1.0" standalone="no"?>
<!DOCTYPE svg PUBLIC "-//W3C//DTD SVG 20010904//EN"
 "http://www.w3.org/TR/2001/REC-SVG-20010904/DTD/svg10.dtd">
<svg version="1.0" xmlns="http://www.w3.org/2000/svg"
 width="360.000000pt" height="360.000000pt" viewBox="0 0 360.000000 360.000000"
 preserveAspectRatio="xMidYMid meet">

<g transform="translate(0.000000,360.000000) scale(0.100000,-0.100000)"
fill="#000000" stroke="none">
<path d="M773 3360 c-48 -20 -55 -57 -51 -254 4 -201 11 -228 80 -292 18 -17
311 -239 651 -493 447 -333 620 -468 628 -488 6 -17 7 -40 2 -58 -9 -31 -14
-36 -928 -718 -353 -265 -378 -286 -408 -341 -19 -37 -22 -59 -25 -226 -3
-171 -1 -187 17 -217 21 -34 70 -51 110 -38 19 6 396 286 1678 1247 364 273
368 277 343 354 -11 32 -89 94 -689 542 -372 278 -820 613 -995 745 -332 249
-355 262 -413 237z"/>
<path d="M767 2229 c-45 -26 -47 -47 -47 -429 0 -302 2 -366 15 -390 19 -36
43 -50 88 -50 28 0 73 29 280 185 215 161 247 189 256 220 6 23 6 47 0 70 -9
31 -41 59 -256 220 -214 161 -251 185 -282 185 -20 0 -44 -5 -54 -11z"/>
</g>
</svg>
